<svg id="visual" viewBox="0 0 960 540" width="960" height="540" xmlns="http://www.w3.org/2000/svg" xmlns:xlink="http://www.w3.org/1999/xlink" version="1.1"><g stroke-width="1" stroke-linejoin="bevel"><path d="M415.7 273L335 216L355 271Z" fill="#005ac6" stroke="#005ac6"></path><path d="M415.7 273L464.7 177L335 216Z" fill="#2563eb" stroke="#2563eb"></path><path d="M302 91L247.3 200L335 216Z" fill="#00498f" stroke="#00498f"></path><path d="M335 216L247.3 200L355 271Z" fill="#00498f" stroke="#00498f"></path><path d="M464.7 177L401.7 68L335 216Z" fill="#1f2937" stroke="#1f2937"></path><path d="M401.7 68L302 91L335 216Z" fill="#1d3048" stroke="#1d3048"></path><path d="M550.3 254L547.3 194L464.7 177Z" fill="#1d3048" stroke="#1d3048"></path><path d="M464.7 177L547.3 117L401.7 68Z" fill="#1d3048" stroke="#1d3048"></path><path d="M415.7 273L550.3 254L464.7 177Z" fill="#105fd9" stroke="#105fd9"></path><path d="M283 359L404.7 394L355 271Z" fill="#105fd9" stroke="#105fd9"></path><path d="M355 271L404.7 394L415.7 273Z" fill="#1d3048" stroke="#1d3048"></path><path d="M415.7 273L562.3 390L550.3 254Z" fill="#1f2937" stroke="#1f2937"></path><path d="M213.3 306L283 359L355 271Z" fill="#193659" stroke="#193659"></path><path d="M247.3 200L213.3 306L355 271Z" fill="#00498f" stroke="#00498f"></path><path d="M601 59L547.3 117L675 203Z" fill="#193659" stroke="#193659"></path><path d="M547.3 194L547.3 117L464.7 177Z" fill="#105fd9" stroke="#105fd9"></path><path d="M213.3 396L308 424L283 359Z" fill="#0054b4" stroke="#0054b4"></path><path d="M283 359L308 424L404.7 394Z" fill="#005ac6" stroke="#005ac6"></path><path d="M308 424L427.7 445L404.7 394Z" fill="#1f2937" stroke="#1f2937"></path><path d="M562.3 390L602 282L550.3 254Z" fill="#193659" stroke="#193659"></path><path d="M562.3 390L415.7 273L404.7 394Z" fill="#105fd9" stroke="#105fd9"></path><path d="M550.3 254L602 282L547.3 194Z" fill="#005ac6" stroke="#005ac6"></path><path d="M320 0L216.3 84L302 91Z" fill="#193659" stroke="#193659"></path><path d="M302 91L216.3 84L247.3 200Z" fill="#105fd9" stroke="#105fd9"></path><path d="M99.7 240L142.7 324L213.3 306Z" fill="#1d3048" stroke="#1d3048"></path><path d="M401.7 68L320 0L302 91Z" fill="#004fa1" stroke="#004fa1"></path><path d="M461.7 0L320 0L401.7 68Z" fill="#1d3048" stroke="#1d3048"></path><path d="M427.7 445L562.3 390L404.7 394Z" fill="#0054b4" stroke="#0054b4"></path><path d="M496.3 0L461.7 0L401.7 68Z" fill="#1d3048" stroke="#1d3048"></path><path d="M213.3 306L213.3 396L283 359Z" fill="#193659" stroke="#193659"></path><path d="M547.3 117L496.3 0L401.7 68Z" fill="#105fd9" stroke="#105fd9"></path><path d="M99.7 240L213.3 306L247.3 200Z" fill="#193659" stroke="#193659"></path><path d="M213.3 306L142.7 324L213.3 396Z" fill="#004fa1" stroke="#004fa1"></path><path d="M562.3 390L625 354L602 282Z" fill="#0054b4" stroke="#0054b4"></path><path d="M409.7 540L493.3 479L427.7 445Z" fill="#193659" stroke="#193659"></path><path d="M427.7 445L493.3 479L562.3 390Z" fill="#1d3048" stroke="#1d3048"></path><path d="M562.3 390L604 430L625 354Z" fill="#2563eb" stroke="#2563eb"></path><path d="M409.7 540L427.7 445L353 540Z" fill="#1f2937" stroke="#1f2937"></path><path d="M675 203L547.3 117L547.3 194Z" fill="#1d3048" stroke="#1d3048"></path><path d="M547.3 117L601 59L496.3 0Z" fill="#1f2937" stroke="#1f2937"></path><path d="M675 203L547.3 194L602 282Z" fill="#0a437d" stroke="#0a437d"></path><path d="M194.3 0L138.7 87L216.3 84Z" fill="#1f2937" stroke="#1f2937"></path><path d="M216.3 84L138.7 87L247.3 200Z" fill="#00498f" stroke="#00498f"></path><path d="M138.7 87L99.7 240L247.3 200Z" fill="#00498f" stroke="#00498f"></path><path d="M707.7 276L675 203L602 282Z" fill="#004fa1" stroke="#004fa1"></path><path d="M493.3 479L604 430L562.3 390Z" fill="#133d6b" stroke="#133d6b"></path><path d="M625 354L707.7 276L602 282Z" fill="#004fa1" stroke="#004fa1"></path><path d="M320 0L194.3 0L216.3 84Z" fill="#1d3048" stroke="#1d3048"></path><path d="M353 540L427.7 445L308 424Z" fill="#0a437d" stroke="#0a437d"></path><path d="M493.3 479L523.3 540L604 430Z" fill="#0054b4" stroke="#0054b4"></path><path d="M208.3 540L353 540L308 424Z" fill="#005ac6" stroke="#005ac6"></path><path d="M178.3 467L308 424L213.3 396Z" fill="#1f2937" stroke="#1f2937"></path><path d="M105.7 415L213.3 396L142.7 324Z" fill="#2563eb" stroke="#2563eb"></path><path d="M105.7 415L178.3 467L213.3 396Z" fill="#005ac6" stroke="#005ac6"></path><path d="M0 119L70.7 178L138.7 87Z" fill="#1d3048" stroke="#1d3048"></path><path d="M138.7 87L70.7 178L99.7 240Z" fill="#1d3048" stroke="#1d3048"></path><path d="M0 334L105.7 415L142.7 324Z" fill="#193659" stroke="#193659"></path><path d="M777.7 341L707.7 276L625 354Z" fill="#2563eb" stroke="#2563eb"></path><path d="M0 334L142.7 324L99.7 240Z" fill="#1f2937" stroke="#1f2937"></path><path d="M409.7 540L523.3 540L493.3 479Z" fill="#133d6b" stroke="#133d6b"></path><path d="M194.3 0L130.7 0L138.7 87Z" fill="#004fa1" stroke="#004fa1"></path><path d="M675 203L716.7 112L601 59Z" fill="#133d6b" stroke="#133d6b"></path><path d="M601 59L679 0L496.3 0Z" fill="#0a437d" stroke="#0a437d"></path><path d="M783.7 153L716.7 112L675 203Z" fill="#133d6b" stroke="#133d6b"></path><path d="M127.7 540L208.3 540L178.3 467Z" fill="#0a437d" stroke="#0a437d"></path><path d="M178.3 467L208.3 540L308 424Z" fill="#005ac6" stroke="#005ac6"></path><path d="M716.7 112L679 0L601 59Z" fill="#105fd9" stroke="#105fd9"></path><path d="M0 119L0 202L70.7 178Z" fill="#133d6b" stroke="#133d6b"></path><path d="M70.7 178L0 202L99.7 240Z" fill="#0054b4" stroke="#0054b4"></path><path d="M0 202L0 264L99.7 240Z" fill="#105fd9" stroke="#105fd9"></path><path d="M643 540L721.7 439L604 430Z" fill="#0a437d" stroke="#0a437d"></path><path d="M604 430L721.7 439L625 354Z" fill="#2563eb" stroke="#2563eb"></path><path d="M707.7 276L783.7 153L675 203Z" fill="#1d3048" stroke="#1d3048"></path><path d="M0 264L0 334L99.7 240Z" fill="#0054b4" stroke="#0054b4"></path><path d="M105.7 415L127.7 540L178.3 467Z" fill="#00498f" stroke="#00498f"></path><path d="M0 0L0 119L138.7 87Z" fill="#193659" stroke="#193659"></path><path d="M523.3 540L643 540L604 430Z" fill="#193659" stroke="#193659"></path><path d="M819.3 208L783.7 153L707.7 276Z" fill="#0054b4" stroke="#0054b4"></path><path d="M716.7 112L763.7 0L679 0Z" fill="#2563eb" stroke="#2563eb"></path><path d="M0 467L127.7 540L105.7 415Z" fill="#2563eb" stroke="#2563eb"></path><path d="M721.7 439L777.7 341L625 354Z" fill="#0a437d" stroke="#0a437d"></path><path d="M777.7 341L819.3 208L707.7 276Z" fill="#193659" stroke="#193659"></path><path d="M815.3 123L716.7 112L783.7 153Z" fill="#193659" stroke="#193659"></path><path d="M815.3 123L763.7 0L716.7 112Z" fill="#1d3048" stroke="#1d3048"></path><path d="M819.3 208L815.3 123L783.7 153Z" fill="#193659" stroke="#193659"></path><path d="M130.7 0L0 0L138.7 87Z" fill="#005ac6" stroke="#005ac6"></path><path d="M0 334L0 467L105.7 415Z" fill="#0a437d" stroke="#0a437d"></path><path d="M880.3 368L858.3 306L777.7 341Z" fill="#004fa1" stroke="#004fa1"></path><path d="M777.7 341L858.3 306L819.3 208Z" fill="#2563eb" stroke="#2563eb"></path><path d="M643 540L730.7 540L721.7 439Z" fill="#004fa1" stroke="#004fa1"></path><path d="M835.3 430L777.7 341L721.7 439Z" fill="#1d3048" stroke="#1d3048"></path><path d="M819.3 208L960 169L815.3 123Z" fill="#1f2937" stroke="#1f2937"></path><path d="M730.7 540L835.3 430L721.7 439Z" fill="#0a437d" stroke="#0a437d"></path><path d="M0 467L0 540L127.7 540Z" fill="#193659" stroke="#193659"></path><path d="M815.3 123L828.3 0L763.7 0Z" fill="#0a437d" stroke="#0a437d"></path><path d="M960 118L828.3 0L815.3 123Z" fill="#0a437d" stroke="#0a437d"></path><path d="M835.3 430L880.3 368L777.7 341Z" fill="#00498f" stroke="#00498f"></path><path d="M858.3 306L960 281L819.3 208Z" fill="#2563eb" stroke="#2563eb"></path><path d="M730.7 540L863.3 540L835.3 430Z" fill="#00498f" stroke="#00498f"></path><path d="M960 441L960 359L880.3 368Z" fill="#2563eb" stroke="#2563eb"></path><path d="M960 359L858.3 306L880.3 368Z" fill="#133d6b" stroke="#133d6b"></path><path d="M960 359L960 281L858.3 306Z" fill="#193659" stroke="#193659"></path><path d="M960 281L960 169L819.3 208Z" fill="#005ac6" stroke="#005ac6"></path><path d="M960 169L960 118L815.3 123Z" fill="#005ac6" stroke="#005ac6"></path><path d="M960 441L880.3 368L835.3 430Z" fill="#2563eb" stroke="#2563eb"></path><path d="M863.3 540L960 441L835.3 430Z" fill="#105fd9" stroke="#105fd9"></path><path d="M960 118L960 0L828.3 0Z" fill="#133d6b" stroke="#133d6b"></path><path d="M863.3 540L960 540L960 441Z" fill="#004fa1" stroke="#004fa1"></path></g></svg>