<svg id="visual" viewBox="0 0 960 540" width="960" height="540" xmlns="http://www.w3.org/2000/svg" xmlns:xlink="http://www.w3.org/1999/xlink" version="1.1"><g stroke-width="1" stroke-linejoin="bevel"><path d="M471 351L479 184L248 360Z" fill="#133d6b" stroke="#133d6b"></path><path d="M479 184L233 182L248 360Z" fill="#004fa1" stroke="#004fa1"></path><path d="M479 184L473 0L233 182Z" fill="#004fa1" stroke="#004fa1"></path><path d="M473 0L238 0L233 182Z" fill="#1d3048" stroke="#1d3048"></path><path d="M0 362L245 540L248 360Z" fill="#004fa1" stroke="#004fa1"></path><path d="M248 360L478 540L471 351Z" fill="#105fd9" stroke="#105fd9"></path><path d="M245 540L478 540L248 360Z" fill="#0054b4" stroke="#0054b4"></path><path d="M471 351L717 188L479 184Z" fill="#105fd9" stroke="#105fd9"></path><path d="M238 0L0 170L233 182Z" fill="#2563eb" stroke="#2563eb"></path><path d="M233 182L0 362L248 360Z" fill="#1f2937" stroke="#1f2937"></path><path d="M730 361L717 188L471 351Z" fill="#2563eb" stroke="#2563eb"></path><path d="M479 184L717 188L473 0Z" fill="#105fd9" stroke="#105fd9"></path><path d="M0 170L0 362L233 182Z" fill="#1d3048" stroke="#1d3048"></path><path d="M478 540L730 361L471 351Z" fill="#193659" stroke="#193659"></path><path d="M238 0L0 0L0 170Z" fill="#005ac6" stroke="#005ac6"></path><path d="M0 362L0 540L245 540Z" fill="#0a437d" stroke="#0a437d"></path><path d="M717 188L727 0L473 0Z" fill="#193659" stroke="#193659"></path><path d="M960 169L727 0L717 188Z" fill="#004fa1" stroke="#004fa1"></path><path d="M478 540L721 540L730 361Z" fill="#2563eb" stroke="#2563eb"></path><path d="M960 363L960 169L730 361Z" fill="#004fa1" stroke="#004fa1"></path><path d="M730 361L960 169L717 188Z" fill="#133d6b" stroke="#133d6b"></path><path d="M960 540L960 363L730 361Z" fill="#1f2937" stroke="#1f2937"></path><path d="M960 169L960 0L727 0Z" fill="#2563eb" stroke="#2563eb"></path><path d="M721 540L960 540L730 361Z" fill="#1d3048" stroke="#1d3048"></path></g></svg>